<svg xmlns="http://www.w3.org/2000/svg" width="116" height="75" viewBox="0 0 116 75"><g class="nc-icon-wrapper"><rect width="116" height="75" rx="8" fill="#FFF"/><g fill="#8492A6"><path d="M51.342 52.415h-7.88l4.929-30.474h7.878zm28.562-29.729c-1.554-.616-4.02-1.297-7.067-1.297-7.78 0-13.26 4.15-13.294 10.082-.064 4.377 3.923 6.808 6.906 8.267 3.048 1.491 4.084 2.465 4.084 3.794-.03 2.041-2.463 2.982-4.731 2.982-3.146 0-4.832-.485-7.393-1.62l-1.037-.487-1.103 6.84c1.848.842 5.252 1.59 8.787 1.622 8.267 0 13.65-4.085 13.713-10.407.032-3.469-2.074-6.127-6.613-8.3-2.756-1.393-4.444-2.334-4.444-3.76.033-1.297 1.428-2.626 4.539-2.626 2.561-.065 4.443.551 5.869 1.167l.712.324 1.072-6.58zM90.376 41.62c.649-1.751 3.145-8.527 3.145-8.527-.032.065.648-1.783 1.037-2.917l.55 2.625s1.493 7.295 1.817 8.818h-6.55zm9.724-19.68h-6.094c-1.88 0-3.307.551-4.118 2.529L78.186 52.414h8.267l1.653-4.57h10.116c.227 1.07.94 4.57.94 4.57h7.296L100.1 21.941zm-63.218.001l-7.716 20.78-.843-4.214c-1.427-4.863-5.9-10.146-10.894-12.773l7.068 26.649h8.332L45.213 21.94h-8.331z" fill="#8492A6"/><path d="M22 21.941H9.325l-.13.616c9.889 2.529 16.438 8.625 19.129 15.951l-2.756-14.005c-.454-1.946-1.848-2.497-3.566-2.562z" fill="#8492A6"/></g></g></svg>