<svg xmlns="http://www.w3.org/2000/svg" width="112.2" height="112.2" viewBox="0 0 112.2 112.2"><g class="nc-icon-wrapper"><circle cx="56.1" cy="56.1" r="56.1" class="dna" fill="#dc4e41" style=""/><path d="M19.5 58.6c-.2 9.7 6.4 18.9 15.6 21.9 8.6 2.9 19.2.7 24.9-6.6 4.2-5.2 5.1-12.1 4.7-18.5-7.4-.1-14.8 0-22.1 0v7.9c4.4.1 8.8.1 13.3.2-1.1 3.8-3.7 7.4-7.5 8.8-7.4 3.3-16.9-1-19.3-8.8-2.8-7.5 1.8-16.5 9.4-18.7 4.7-1.7 9.6.2 13.7 2.7 2.1-1.9 4-4 5.9-6.1-4.6-3.9-10.5-6.2-16.6-5.7-12 0-22.4 11-22 22.9zm59.6-9.9c0 2.2 0 4.4-.1 6.6h-6.6v6.6H79v6.6h6.6v-6.6h6.6v-6.6h-6.6v-6.6h-6.5z" class="dna" fill="#dc4e41" style=""/><path d="M19.5 58.6c-.5-11.9 10-22.9 21.9-23.1 6.1-.5 12 1.8 16.6 5.7-1.9 2.1-3.8 4.1-5.9 6.1-4.1-2.5-8.9-4.3-13.7-2.7-7.6 2.2-12.3 11.2-9.4 18.7 2.3 7.8 11.8 12.1 19.3 8.8 3.9-1.4 6.4-4.9 7.5-8.8-4.4-.1-8.8 0-13.3-.2v-7.9h22.1c.5 6.4-.5 13.3-4.7 18.5-5.7 7.4-16.3 9.5-24.9 6.6-9-2.8-15.7-12-15.5-21.7zm59.6-9.9h6.6v6.6h6.6v6.6h-6.6v6.6h-6.6v-6.6h-6.6v-6.6h6.6v-6.6z" class="dnb" fill="#fff" style=""/></g></svg>