<svg xmlns="http://www.w3.org/2000/svg" width="75" height="75" viewBox="0 0 75 75"><g class="nc-icon-wrapper"><g fill="none" fill-rule="evenodd" stroke="#ffffff"><circle fill="#F67828" cx="37.5" cy="37.5" r="37.5"/><path d="M47.203 14H27.281C25.406 14 24 15.406 24 17.281V57.36c0 1.875 1.406 3.282 3.281 3.282h19.922c1.875 0 3.281-1.407 3.281-3.282V17.281c0-1.875-1.406-3.281-3.28-3.281zM37.125 59.703a2.1 2.1 0 01-2.11-2.11 2.1 2.1 0 012.11-2.109 2.1 2.1 0 012.11 2.11 2.1 2.1 0 01-2.11 2.11zm10.078-5.156H27.281V18.922h19.922v35.625z" fill="#FFFFFF" fill-rule="nonzero"/></g></g></svg>