<svg xmlns="http://www.w3.org/2000/svg" width="48" height="48" viewBox="0 0 48 48"><g class="nc-icon-wrapper"><defs><path id="hya" d="M.006 0H48v48H.006z"/></defs><g fill="none" fill-rule="evenodd" stroke="#ffffff"><mask id="hyb" fill="#FFFFFF"><use xlink:href="#hya" fill="#FFFFFF"/></mask><path fill="#4EA7C1" d="M24 0c13.255 0 24 10.745 24 24S37.255 48 24 48 0 37.255 0 24 10.745 0 24 0" mask="url(#hyb)"/><path fill="#E4E4DF" d="M35.395 10.355a.778.778 0 00-.785-.066L8.897 22.627a1.302 1.302 0 00-.726 1.205 1.3 1.3 0 00.753 1.157l23.707 10.642c.791.371 1.723-.213 1.774-1.103l1.338-23.445a.83.83 0 00-.348-.728"/><path fill="#C7C6C1" d="M16.34 27.871l1.603 10.938 17.802-28.596L16.34 27.87"/><path fill="#FFFFFE" d="M35.05 10.287L8.91 22.25c-.45.206-.744.665-.739 1.153.006.489.312.94.767 1.137l7.085 3.033 19.723-17.282a.823.823 0 00-.694-.005"/><path fill="#E4E4DF" d="M19.548 29.525l-2.186 9.284 18.383-28.596-16.197 19.312"/><path fill="#FFFFFE" d="M35.39 10.27a.786.786 0 00-.103-.057L19.404 28.986l13.187 5.628c.801.357 1.745-.205 1.797-1.062l1.355-22.58a.787.787 0 00-.352-.702"/></g></g></svg>